# xmcd CD database file
#
# Track frame offsets:
#	150
#	8045
#	22360
#	36390
#	50495
#	62500
#	78915
#	88670
#	105580
#	126005
#	141735
#	156050
#
# Disc length: 2215 seconds
#
# Revision: 2
# Processed by: cddbd v1.4b41PL1 Copyright (c) Steve Scherf et al.
# Submitted via: Feurio! 1.60 - http://www.feurio.com
#
DISCID=9c08a50c,9f08a50c
DTITLE=Smal but angry - Smal but angry
DYEAR=1900
DGENRE=
TTITLE0=We'll be there
TTITLE1=Womens's toy
TTITLE2=Killing Questions
TTITLE3=World of today
TTITLE4=Remember
TTITLE5=A Farewell to Arms
TTITLE6=Female Coffin Nail
TTITLE7=Slow One
TTITLE8=Just a Man
TTITLE9=Don't ask Me why
TTITLE10=Are you my dad?
TTITLE11=Small but angry
EXTD=
EXTT0=
EXTT1=
EXTT2=
EXTT3=
EXTT4=
EXTT5=
EXTT6=
EXTT7=
EXTT8=
EXTT9=
EXTT10=
EXTT11=
PLAYORDER=
